# xmcd
#
# Track frame offsets:
#	150
#	14098
#	24810
#	36583
#	42685
#	53413
#	64340
#	73283
#	85493
#	92908
#
# Disc length: 1350 seconds
#
# Revision: 1
# Processed by: cddbd v1.5PL3 Copyright (c) Steve Scherf et al.
# Submitted via: EasyCDDAExtractor 6.5.0.3
#
DISCID=9005440a
DTITLE=Mitch Miller - Sing Along With Mitch Miller
DYEAR=1995
DGENRE=Acid Jazz
TTITLE0=The Yellow Rose Of Texas
TTITLE1=Tenza, Tenza, Tenza
TTITLE2=Heart Of My Heart
TTITLE3=Singin' In The Rain
TTITLE4=Bidin' My Time
TTITLE5=March From The River Kwai
TTITLE6=I'm Looking Over A Four Leaf Clover
TTITLE7=Bye Bye Blackbird
TTITLE8=Five Foot Two, Eyes Of Blue
TTITLE9=Ain't We Got Fun
EXTD=
EXTT0=
EXTT1=
EXTT2=
EXTT3=
EXTT4=
EXTT5=
EXTT6=
EXTT7=
EXTT8=
EXTT9=
PLAYORDER=
